<?xml version="1.0" standalone="no"?>
<!DOCTYPE svg PUBLIC "-//W3C//DTD SVG 20010904//EN"
 "http://www.w3.org/TR/2001/REC-SVG-20010904/DTD/svg10.dtd">
<svg version="1.0" xmlns="http://www.w3.org/2000/svg"
 width="512.000000pt" height="512.000000pt" viewBox="0 0 512.000000 512.000000"
 preserveAspectRatio="xMidYMid meet">

<g transform="translate(0.000000,512.000000) scale(0.100000,-0.100000)"
fill="#000000" stroke="none">
<path d="M1725 5010 c-453 -30 -858 -214 -1180 -534 -278 -278 -447 -605 -522
-1016 -15 -87 -17 -231 -20 -1728 l-4 -1634 1193 5 c1259 5 1272 5 1523 52
470 89 911 292 1298 597 132 104 370 344 473 478 289 373 475 772 568 1217 60
286 59 262 63 1466 l4 1107 -1643 -2 c-904 0 -1692 -4 -1753 -8z m813 -873
c12 -12 109 -205 217 -427 108 -223 207 -416 220 -429 21 -21 60 -29 484 -92
254 -38 471 -74 482 -79 26 -15 59 -69 59 -98 0 -13 -6 -35 -14 -50 -8 -15
-162 -174 -344 -353 -214 -212 -331 -335 -336 -353 -4 -17 22 -196 69 -475 41
-247 75 -461 75 -477 0 -71 -76 -128 -140 -105 -17 5 -207 105 -424 220 -289
155 -403 211 -427 211 -25 0 -139 -56 -429 -211 -217 -116 -407 -215 -422
-219 -38 -12 -93 6 -118 37 -14 17 -20 40 -20 72 0 25 34 243 75 484 58 344
72 444 64 465 -6 15 -163 180 -350 368 -335 336 -339 341 -339 381 0 52 37 99
88 112 20 5 230 38 465 72 286 42 438 69 456 80 21 12 71 108 226 429 112 229
212 425 228 440 43 45 111 44 155 -3z"/>
</g>
</svg>
